<?xml version="1.0" encoding="UTF-8" standalone="no"?>
<!-- Created with Inkscape (http://www.inkscape.org/) -->

<svg
   xmlns:dc="http://purl.org/dc/elements/1.1/"
   xmlns:cc="http://creativecommons.org/ns#"
   xmlns:rdf="http://www.w3.org/1999/02/22-rdf-syntax-ns#"
   xmlns:svg="http://www.w3.org/2000/svg"
   xmlns="http://www.w3.org/2000/svg"
   xmlns:sodipodi="http://sodipodi.sourceforge.net/DTD/sodipodi-0.dtd"
   xmlns:inkscape="http://www.inkscape.org/namespaces/inkscape"
   width="48"
   height="480"
   id="svg4531"
   version="1.1"
   inkscape:version="0.48.4 r9939"
   sodipodi:docname="New document 7">
  <defs
     id="defs4533" />
  <sodipodi:namedview
     id="base"
     pagecolor="#ffffff"
     bordercolor="#666666"
     borderopacity="1.0"
     inkscape:pageopacity="0.0"
     inkscape:pageshadow="2"
     inkscape:zoom="1"
     inkscape:cx="-49.125631"
     inkscape:cy="230.28932"
     inkscape:document-units="px"
     inkscape:current-layer="layer1"
     showgrid="true"
     inkscape:window-width="1280"
     inkscape:window-height="793"
     inkscape:window-x="0"
     inkscape:window-y="33"
     inkscape:window-maximized="1">
    <inkscape:grid
       type="xygrid"
       id="grid4539"
       empspacing="4"
       visible="true"
       enabled="true"
       snapvisiblegridlinesonly="true"
       spacingx="12px"
       spacingy="12px" />
  </sodipodi:namedview>
  <metadata
     id="metadata4536">
    <rdf:RDF>
      <cc:Work
         rdf:about="">
        <dc:format>image/svg+xml</dc:format>
        <dc:type
           rdf:resource="http://purl.org/dc/dcmitype/StillImage" />
        <dc:title></dc:title>
      </cc:Work>
    </rdf:RDF>
  </metadata>
  <g
     inkscape:label="Layer 1"
     inkscape:groupmode="layer"
     id="layer1"
     transform="translate(0,-572.3622)">
    <g
       id="g4693"
       transform="translate(-7.5e-4,2.6171874e-6)">
      <path
         id="path3903"
         d="m 27.01225,656.27893 c -0.935,0.938 -0.935,2.448 0,3.391 0.468,0.469 1.08,0.696 1.693,0.696 0.604,0 1.225,-0.229 1.688,-0.696 l 15.303,-15.303 -15.303,-15.3 c -0.936,-0.937 -2.447,-0.937 -3.386,0 -0.938,0.938 -0.938,2.45 0,3.386 l 11.914,11.914 -11.909,11.912 z"
         inkscape:connector-curvature="0"
         style="fill:#1d1d1b" />
      <path
         id="path3905"
         d="m 20.98625,632.44543 c 0.935,-0.938 0.935,-2.445 0,-3.386 -0.468,-0.47 -1.08,-0.701 -1.693,-0.701 -0.604,0 -1.225,0.231 -1.688,0.701 l -15.3,15.298 15.3,15.305 c 0.936,0.938 2.45,0.938 3.386,0 0.938,-0.938 0.938,-2.451 0,-3.391 l -11.914,-11.914 11.909,-11.912 z"
         inkscape:connector-curvature="0"
         style="fill:#1d1d1b" />
    </g>
    <path
       style="fill:#1d1d1b"
       inkscape:connector-curvature="0"
       d="m 44.093069,791.18318 c -1.41,-3.666 -5.527,-5.492 -9.195,-4.078 -0.07,0.027 -0.146,0.062 -0.211,0.086 0.021,-0.307 0.041,-0.617 0.041,-0.932 0,-5.742 -4.654,-10.396 -10.396,-10.396 -4.207,0 -7.829,2.499 -9.467,6.098 -1.729,-0.354 -3.562,-0.229 -5.3279997,0.443 -4.913996,1.896 -7.354996,7.417 -5.466996,12.33 1.459,3.786 5.063996,6.106 8.8959957,6.106 v 0.021 h 7.68 v -5.729 h -2.305 c -0.854,0 -1.188,-0.562 -0.729,-1.246 l 5.829,-9.41 c 0,0 0.229,-0.335 0.562,-0.335 0.333,0 0.562,0.335 0.562,0.335 l 5.83,9.41 c 0.445,0.686 0.114,1.246 -0.733,1.246 h -2.3 v 5.729 h 10.168 c 0.829,-0.008 1.671,-0.162 2.488,-0.479 3.662,-1.412 5.481,-5.53 4.075,-9.199 z"
       id="path3909" />
    <path
       style="fill:#1d1d1b"
       inkscape:connector-curvature="0"
       d="m 44.092962,743.18318 c -1.412,-3.666 -5.521,-5.492 -9.193995,-4.078 -0.062,0.027 -0.146,0.062 -0.214,0.086 0.023,-0.307 0.041,-0.617 0.041,-0.932 0,-5.742 -4.646,-10.396 -10.396,-10.396 -4.206,0 -7.828,2.499 -9.466,6.098 -1.729,-0.354 -3.565,-0.229 -5.3290004,0.443 -4.913995,1.896 -7.361995,7.417 -5.466995,12.33 1.46,3.786 5.061995,6.106 8.8959954,6.106 v 0.021 h 24.562 c 0.816,-0.008 1.669995,-0.162 2.478995,-0.479 3.681,-1.412 5.505,-5.53 4.088,-9.199 z m -15.098995,-3 -4.628,7.471 c 0,0 -0.188,0.271 -0.448,0.271 -0.26,0 -0.447,-0.271 -0.447,-0.271 l -4.629,-7.471 c -0.354,-0.544 -0.094,-0.99 0.584,-0.99 h 1.826 v -3.526 h 5.334 v 3.526 h 1.825 c 0.679,-10e-4 0.932,0.446 0.583,0.99 z"
       id="path3911" />
    <path
       style="fill:#1d1d1b"
       inkscape:connector-curvature="0"
       d="m 24,916.36218 c -8.837,0 -16,7.164 -16,16 0,8.841 7.163,16 16,16 8.837,0 16,-7.159 16,-16 0,-8.834 -7.163,-16 -16,-16 z m -1.183,12.423 c -0.243,0.071 -0.543,0.147 -0.918,0.241 0.132,0.354 0.188,0.679 0.188,0.978 0,1.978 -1.188,3.442 -3.127,3.815 -0.611,0.099 -0.918,0.438 -0.918,0.979 0,0.611 0.73,0.949 1.648,1.185 0.468,0.104 0.918,0.242 1.386,0.396 0.917,0.315 1.646,1.065 1.646,2.271 0,2.342 -1.399,3.502 -4.19,3.502 -0.729,0 -1.404,-0.074 -2.003,-0.242 -1.198,-0.312 -2.247,-1.293 -2.247,-2.791 0,-1.271 0.711,-2.135 2.114,-2.604 v -0.062 c -0.512,-0.312 -0.771,-0.784 -0.771,-1.438 0,-0.852 0.244,-1.395 0.712,-1.602 v -0.062 c -1.104,-0.373 -1.929,-1.908 -1.929,-3.164 0,-2.149 1.666,-3.744 3.814,-3.744 0.75,0 1.438,0.188 2.062,0.543 0.711,0 1.554,-0.188 2.527,-0.543 l 0.006,2.342 0,0 z m 3.671,7.845 h -2.562 c 0.03,-0.338 0.062,-0.844 0.062,-1.528 v -7.062 c 0,-0.649 -0.021,-1.16 -0.062,-1.479 h 2.562 c -0.021,0.196 -0.038,0.688 -0.038,1.424 v 6.967 c 0,0.874 0.014,1.438 0.038,1.678 z m -1.275,-11.854 c -0.88,0 -1.592,-0.771 -1.592,-1.666 0,-0.918 0.692,-1.705 1.592,-1.705 0.9,0 1.573,0.81 1.573,1.705 0.002,0.877 -0.697,1.666 -1.573,1.666 z m 8.241,11.556 c -0.543,0.312 -1.217,0.446 -2.021,0.446 -0.479,0 -0.886,-0.071 -1.236,-0.229 -0.693,-0.303 -1.049,-0.747 -1.271,-1.497 -0.229,-0.729 -0.269,-1.326 -0.269,-2.242 v -4.062 h 0.037 v -0.037 c -0.062,0 -0.113,0 -0.206,-0.021 -0.094,0 -0.169,0 -0.229,0 -0.021,0 -0.237,0.021 -0.688,0.062 v -2.188 h 1.124 v -0.889 c 0,-0.396 -0.021,-0.729 -0.075,-1.021 h 2.622 c -0.037,0.244 -0.057,0.883 -0.057,1.91 h 1.967 v 2.188 c -0.112,0 -0.281,0 -0.487,-0.021 -0.225,-0.021 -0.394,-0.021 -0.505,-0.021 h -0.975 v 4.215 c 0,1.026 0.338,1.535 0.987,1.535 0.474,0 0.896,-0.134 1.271,-0.396 l 0.011,2.268 0,0 z"
       id="path3949" />
    <path
       style="fill:#1d1d1b"
       inkscape:connector-curvature="0"
       d="m 37.313951,592.6427 h -9.598 v -9.59 c 0,-0.937 -0.757,-1.688 -1.688,-1.688 h -4.062 c -0.934,0 -1.688,0.758 -1.688,1.688 v 9.59 h -9.59 c -0.938,0 -1.69,0.757 -1.69,1.689 v 4.059 c 0,0.938 0.757,1.689 1.69,1.689 h 9.59 v 9.592 c 0,0.934 0.758,1.688 1.688,1.688 h 4.062 c 0.934,0 1.688,-0.76 1.688,-1.688 v -9.592 h 9.598 c 0.938,0 1.688,-0.757 1.688,-1.689 v -4.059 c 0.01,-0.933 -0.75,-1.689 -1.688,-1.689 z"
       id="path4091" />
    <path
       style="fill:#1d1d1b"
       inkscape:connector-curvature="0"
       d="m 37.496764,879.78518 c 0,-0.25 -0.036,-0.48 -0.096,-0.705 -0.035,-0.141 -0.101,-0.254 -0.146,-0.377 -0.021,-0.062 -0.048,-0.146 -0.079,-0.211 h -10e-4 c -0.185,-0.384 -0.396,-0.678 -0.552,-0.846 l -8.713,-8.371 c -0.694,-0.688 -1.624,-0.854 -2.074,-0.894 -0.003,0 -0.006,0 -0.009,-10e-4 -0.083,-0.014 -0.154,-0.018 -0.198,-0.018 h -0.062 -2.275 -9.792 c -1.658,0 -3,1.35 -3,3 v 26 c 0,1.65 1.342,3 3,3 h 21 c 1.656,0 3,-1.35 3,-3 v -15.58 -1.854 c 0.002,-0.046 -0.003,-0.09 -0.003,-0.143 z m -2.991,17.59 h -21 v -26 h 10.473 v 4.109 c 0,3.312 2.69,6 6,6 h 4.527 v 15.891 z m -4.536,-18.883 c -1.646,0 -3,-1.351 -3,-3 v -3.646 l 7.036,6.646 h -4.036 z"
       id="path4277" />
    <path
       style="fill:#1d1d1b"
       inkscape:connector-curvature="0"
       d="m 36.9965,826.05268 h -12.328 c -0.108,-1.509 -1.396,-2.688 -2.979,-2.688 h -6.678 c -1.58,0 -2.862,1.188 -2.979,2.688 h -1.021 c -1.655,0 -3.011,1.305 -3.011,2.914 v 17.479 c 0,1.604 1.354,2.914 3.011,2.914 h 25.98 c 1.661,0 3.008,-1.312 3.008,-2.914 v -17.479 c -0.002,-1.616 -1.34,-2.914 -3.003,-2.914 z m 0,20.384 h -25.985 v -17.479 h 25.98 l 0.005,17.479 0,0 z"
       id="path4311" />
    <path
       style="fill:#1d1d1b"
       inkscape:connector-curvature="0"
       d="m 35.1145,987.19356 -6.839,-6.838 6.838,-6.836 c 1.188,-1.187 1.188,-3.101 0,-4.271 -1.188,-1.188 -3.099,-1.188 -4.271,0.002 l -6.846,6.838 -6.839,-6.84 c -1.185,-1.188 -3.095,-1.188 -4.271,0.002 -1.188,1.18 -1.188,3.096 0,4.271 l 6.839,6.838 -6.839,6.846 c -1.188,1.183 -1.188,3.099 0,4.271 0.592,0.593 1.358,0.89 2.145,0.89 0.771,0 1.552,-0.297 2.146,-0.89 l 6.839,-6.84 6.839,6.838 c 0.59,0.595 1.363,0.89 2.143,0.89 0.771,0 1.554,-0.295 2.146,-0.89 1.141,-1.183 1.141,-3.097 -0.03,-4.281 z"
       id="path4321" />
    <path
       style="fill:#1d1d1b"
       inkscape:connector-curvature="0"
       d="m 24,1012.3622 c -8.854,0 -16,7.146 -16,16 0,8.829 7.146,16 16,16 8.83,0 16,-7.17 16,-16 0,-8.854 -7.17,-16 -16,-16 z m 2.261,23.922 H 21.76 v -10.201 h 4.501 v 10.201 z M 24,1024.7192 c -1.439,0 -2.4,-0.84 -2.4,-2.146 0,-1.301 0.961,-2.144 2.4,-2.144 1.461,0 2.396,0.843 2.396,2.144 10e-4,1.305 -0.935,2.146 -2.396,2.146 z"
       id="path4465" />
    <path
       style="fill:#1d1d1b"
       inkscape:connector-curvature="0"
       d="m 39.289248,681.24781 -4.172,-4.173 c -0.955,-0.957 -2.504,-0.95 -3.459,0.007 l -21.604,21.604 -2.0590004,9.678 9.6840004,-2.051 21.604,-21.604 c 0.959,-0.957 0.963,-2.504 0.006,-3.461 z m -22.266,23.225 -6.688,1.549 1.561,-6.679 0.812,-0.812 2.562,2.562 2.562,2.562 -0.809,0.818 z"
       id="path4245" />
  </g>
</svg>
